<svg width="68" height="68" viewBox="0 0 68 68" fill="none" xmlns="http://www.w3.org/2000/svg">
<rect x="20" y="16" width="18" height="5" rx="1" fill="#FFF3A2"/>
<path d="M22 21H36V32L48.7354 56.6217C49.7682 58.6186 48.3189 61 46.0707 61H11.9293C9.68114 61 8.23178 58.6186 9.26462 56.6217L22 32V21Z" fill="#FFF3A2"/>
<path d="M15.1516 58H42.8484C44.3145 58 45.2823 56.4749 44.6581 55.1484L38 41C38 41 36 34.5 29 39.5C22 44.5 20 41 20 41L13.3419 55.1484C12.7177 56.4749 13.6855 58 15.1516 58Z" fill="#CCB100"/>
<path d="M42.8484 58H15.1516C13.6855 58 12.7177 56.4749 13.3419 55.1484L20 41C20 41 22 34.5 29 39.5C36 44.5 38 41 38 41L44.6581 55.1484C45.2823 56.4749 44.3145 58 42.8484 58Z" fill="#FFCC18"/>
<path d="M32 31C32 32.6569 30.6569 34 29 34C27.3431 34 26 32.6569 26 31C26 29.3431 28.3431 25 29 25C29.6569 25 32 29.3431 32 31Z" fill="#FFCC18"/>
<path d="M22 32L22.4441 32.2297L22.5 32.1217V32H22ZM29 61.5C29.2761 61.5 29.5 61.2761 29.5 61C29.5 60.7239 29.2761 60.5 29 60.5V61.5ZM32 16.5C32.2761 16.5 32.5 16.2761 32.5 16C32.5 15.7239 32.2761 15.5 32 15.5V16.5ZM28 21.5C28.2761 21.5 28.5 21.2761 28.5 21C28.5 20.7239 28.2761 20.5 28 20.5V21.5ZM9.26462 56.6217L8.82051 56.392L9.26462 56.6217ZM21.5 24V32H22.5V24H21.5ZM21.5559 31.7703L8.82051 56.392L9.70873 56.8514L22.4441 32.2297L21.5559 31.7703ZM11.9293 61.5H29V60.5H11.9293V61.5ZM22.5 24V21H21.5V24H22.5ZM22 20.5H21V21.5H22V20.5ZM20.5 20V17H19.5V20H20.5ZM21 16.5H32V15.5H21V16.5ZM22 21.5H28V20.5H22V21.5ZM20.5 17C20.5 16.7239 20.7239 16.5 21 16.5V15.5C20.1716 15.5 19.5 16.1716 19.5 17H20.5ZM21 20.5C20.7239 20.5 20.5 20.2761 20.5 20H19.5C19.5 20.8284 20.1716 21.5 21 21.5V20.5ZM8.82051 56.392C7.61553 58.7217 9.30645 61.5 11.9293 61.5V60.5C10.0558 60.5 8.84803 58.5155 9.70873 56.8514L8.82051 56.392Z" fill="#EEBE15"/>
<path d="M41.5808 10.5L44.5353 5.5L50.4647 5.5L53.4192 10.5L50.4647 15.5H44.5353L41.5808 10.5Z" stroke="#EEBE15"/>
<path d="M42 10.5H37" stroke="#EEBE15"/>
<path d="M50.5808 15.5L53.5353 10.5L59.4647 10.5L62.4192 15.5L59.4647 20.5H53.5353L50.5808 15.5Z" fill="#FFF3A2" stroke="#EEBE15"/>
<circle cx="35.5" cy="10.5" r="2" stroke="#EEBE15"/>
<circle cx="49.5" cy="25.5" r="2" stroke="#EEBE15"/>
<circle cx="54.5" cy="30.5" r="2" stroke="#EEBE15"/>
<path d="M51 27L53.5 29.5" stroke="#EEBE15"/>
<path d="M53.5 20.5L51 24" stroke="#EEBE15"/>
</svg>