<svg width="64" height="62" viewBox="0 0 64 62" fill="none" xmlns="http://www.w3.org/2000/svg">
<path d="M63.5196 43.1309C60.2556 42.0466 49.4963 39.1404 42.7232 37.2752C40.3267 36.6246 37.6895 36.3644 35.3645 37.2449C34.0828 37.7307 32.9789 38.5874 31.9097 39.4375C31.0205 40.138 30.3091 40.639 29.4264 41.346C28.723 41.8773 27.9132 42.2505 27.0523 42.4402C26.1915 42.63 25.2998 42.6318 24.4382 42.4456C23.5534 42.2483 21.5689 41.4805 20.6667 41.3851C20.5117 41.3546 20.3522 41.3555 20.1975 41.3879C20.0429 41.4204 19.8964 41.4835 19.7667 41.5738C19.5281 41.7776 19.4999 42.2244 19.7797 42.3719C19.0315 42.0639 15.0995 40.8754 14.3187 40.6607C12.5056 40.1706 11.7791 40.7128 11.5969 41.255C11.4711 41.6323 12.9177 42.2916 13.2582 42.489C12.1218 42.001 9.57128 41.2853 8.51508 41.0728C6.70199 40.7106 5.38771 41.6171 6.29426 42.1572C8.96185 43.7577 14.8089 47.3167 17.4634 48.9411C14.258 48.9259 11.5254 48.9801 9.17873 49.4096C7.56082 49.7132 7.01863 50.3768 6.83645 50.7976C6.81942 50.842 6.81242 50.8897 6.81595 50.9371C6.81948 50.9846 6.83345 51.0307 6.85686 51.0722C6.88028 51.1136 6.91256 51.1493 6.95139 51.1769C6.99023 51.2044 7.03466 51.223 7.08152 51.2313C9.0486 51.5675 19.1529 53.2895 22.5167 53.6452C25.8805 54.0009 27.1058 54.0074 29.3462 53.5671C33.9006 52.6692 38.5678 49.5006 42.5757 46.395C50.2228 50.8561 56.1436 54.3414 62.6759 57.9892C63.1227 51.8451 63.1574 49.8997 63.5196 43.1309Z" fill="#FFF3A1"/>
<path d="M43.5 43C43.3254 44.2225 42.9067 45.262 42.2654 46.1824M36.5 50.5C39.1029 49.1986 41.0706 47.8971 42.2654 46.1824M42.2654 46.1824L48.5 50" stroke="#EEBE15" stroke-linecap="round" stroke-linejoin="round"/>
<path d="M28.9148 42.1636C26.2385 44.534 23.7098 46.4708 21.0291 48.8412C20.6127 49.2099 20.1616 49.7738 20.4349 50.2553C20.5504 50.4292 20.7218 50.5585 20.9207 50.6218C21.6863 50.9059 22.5386 50.6218 23.2782 50.2683C25.3732 49.2815 27.2253 47.8132 29.3616 46.9175C32.0032 45.8093 35.1349 45.5339 37.1692 43.5126" stroke="#EEBE15" stroke-linecap="round" stroke-linejoin="round"/>
<path d="M33.999 17L38.999 10.5" stroke="#FFCC18" stroke-linecap="round" stroke-linejoin="round"/>
<path d="M29.999 16L28.999 10" stroke="#FFCC18" stroke-linecap="round" stroke-linejoin="round"/>
<path d="M35.999 20L43.499 19" stroke="#FFCC18" stroke-linecap="round" stroke-linejoin="round"/>
<path d="M20.0288 42.6625C21.5643 43.3413 23.5509 44.3129 25.0864 44.9917" stroke="#EEBE15" stroke-linecap="round" stroke-linejoin="round"/>
<path d="M13.373 42.8424C16.9537 44.61 19.1441 45.6618 22.5448 47.0455" stroke="#EEBE15" stroke-linecap="round" stroke-linejoin="round"/>
<path d="M17.1558 49.1949C18.2084 49.1255 19.2617 49.1038 20.3157 49.1298" stroke="#EEBE15" stroke-linecap="round" stroke-linejoin="round"/>
<path d="M34.999 24.472C34.999 31.0995 24.6264 39.472 22.999 39.472C21.3716 39.472 10.999 31.0995 10.999 24.472C10.999 17.8446 19.3716 14.472 22.999 23.472C26.6264 14.472 34.999 17.8446 34.999 24.472Z" fill="#FFCC18"/>
</svg>