<svg width="62" height="62" viewBox="0 0 62 62" fill="none" xmlns="http://www.w3.org/2000/svg">
<path d="M54 32.3581C54 45.0129 34.1192 57 31 57C27.8808 57 8 45.0129 8 32.3581C8 19.7033 24.0475 13.2635 31 30.4486C37.9525 13.2635 54 19.7033 54 32.3581Z" fill="#FFF5B8"/>
<path fill-rule="evenodd" clip-rule="evenodd" d="M38.2116 45.7134C36.0446 44.6175 33.5945 44 31.0002 44C28.7364 44 26.5823 44.4702 24.6305 45.3182C24.8677 45.8294 25.0002 46.3993 25.0002 47C25.0002 49.2091 23.2093 51 21.0002 51C20.7084 51 20.4239 50.9688 20.1499 50.9094C24.9327 54.6403 29.6162 57 31.0002 57C32.3739 57 36.9986 54.675 41.7444 50.992C39.6545 50.8601 38.0002 49.1232 38.0002 47C38.0002 46.5499 38.0745 46.1172 38.2116 45.7134Z" fill="#FFCC18"/>
<path d="M14 34L24 45C24.6667 45.6667 25.5 47.5 23.5 49.5C21.5 51.5 19.6772 50.6667 19.0158 50C13.4019 45.3696 8 38.9546 8 32.3581C8 19.7033 24.0475 13.2635 31 30.4486C37.9525 13.2635 54 19.7033 54 32.3581C54 38.9546 48.5981 45.3696 42.9842 50C42.4894 50.5 41.1 51.1 39.5 49.5C37.9 47.9 38.5 45.8333 39 45L48 34" stroke="#EEBE15" stroke-linecap="round" stroke-linejoin="round"/>
<circle cx="17" cy="13" r="5" fill="#FFCC18"/>
<circle cx="31" cy="39" r="5" fill="#FFCC18"/>
<circle cx="45" cy="13" r="5" fill="#FFCC18"/>
</svg>