<svg width="68" height="68" viewBox="0 0 68 68" fill="none" xmlns="http://www.w3.org/2000/svg">
<path fill-rule="evenodd" clip-rule="evenodd" d="M21.1674 60C21.6552 58.2306 22.1477 56.433 22.6155 54.726C23.0044 53.3065 23.3762 51.9495 23.7139 50.7232C24.3645 48.3267 24.6247 45.6895 23.7442 43.3645C23.2584 42.0828 22.4017 40.9789 21.5516 39.9097C21.2295 39.5007 20.9495 39.1294 20.6722 38.7617C20.3467 38.3299 20.025 37.9031 19.6431 37.4264C19.1118 36.723 18.7386 35.9132 18.5489 35.0523C18.3591 34.1915 18.3573 33.2998 18.5435 32.4382C18.6226 32.0836 18.7933 31.5523 18.9757 30.9849C19.2483 30.1365 19.5469 29.2073 19.604 28.6667C19.6345 28.5117 19.6336 28.3522 19.6012 28.1975C19.5687 28.0429 19.5056 27.8964 19.4153 27.7667C19.2115 27.5281 18.7647 27.4999 18.6172 27.7797C18.9252 27.0315 20.1137 23.0995 20.3284 22.3187C20.8185 20.5056 20.2763 19.7791 19.7341 19.5969C19.423 19.4932 18.9202 20.4586 18.6426 20.9914C18.5836 21.1047 18.5348 21.1985 18.5001 21.2582C18.9881 20.1218 19.7038 17.5713 19.9163 16.5151C20.2785 14.702 19.372 13.3877 18.8319 14.2943C17.2314 16.9619 13.6724 22.8089 12.048 25.4634C12.0632 22.258 12.009 19.5254 11.5795 17.1787C11.2759 15.5608 10.6123 15.0186 10.1915 14.8365C10.1471 14.8194 10.0994 14.8124 10.052 14.816C10.0045 14.8195 9.95845 14.8334 9.91695 14.8569C9.87555 14.8803 9.83985 14.9126 9.81225 14.9514C9.78475 14.9902 9.76615 15.0347 9.75785 15.0815C9.42165 17.0486 7.69965 27.1529 7.34395 30.5167C6.98825 33.8805 6.98175 35.1058 7.42205 37.3462C8.31995 41.9006 11.4885 46.5678 14.5941 50.5757C13.9589 51.6647 13.3434 52.7186 12.7445 53.7443C11.4642 55.9366 10.2593 57.9999 9.09767 60L21.1674 60Z" fill="#FFF3A1"/>
<path d="M18.8254 36.9148C16.455 34.2385 14.5182 31.7098 12.1478 29.0291C11.7791 28.6127 11.2152 28.1616 10.7337 28.4349C10.5598 28.5504 10.4305 28.7218 10.3672 28.9207C10.0831 29.6863 10.3672 30.5386 10.7207 31.2782C11.7075 33.3732 13.1758 35.2253 14.0715 37.3616C15.1797 40.0032 15.4551 43.1349 17.4764 45.1692" stroke="#EEBE15" stroke-linecap="round" stroke-linejoin="round"/>
<path d="M18.3267 28.0288C17.6479 29.5643 16.6763 31.5509 15.9975 33.0864" stroke="#EEBE15" stroke-linecap="round" stroke-linejoin="round"/>
<path d="M18.1467 21.373C16.3791 24.9537 15.3273 27.1441 13.9436 30.5448" stroke="#EEBE15" stroke-linecap="round" stroke-linejoin="round"/>
<path d="M11.7941 25.1557C11.8635 26.2083 11.8852 27.2616 11.8592 28.3156" stroke="#EEBE15" stroke-linecap="round" stroke-linejoin="round"/>
<path fill-rule="evenodd" clip-rule="evenodd" d="M46.141 60C45.6532 58.2306 45.1606 56.433 44.6929 54.7259C44.3039 53.3065 43.9321 51.9495 43.5944 50.7232C42.9438 48.3267 42.6836 45.6895 43.5641 43.3645C44.0499 42.0828 44.9066 40.9789 45.7567 39.9097C46.0789 39.5007 46.3589 39.1294 46.6361 38.7617C46.9616 38.3299 47.2834 37.9031 47.6652 37.4264C48.1965 36.723 48.5697 35.9132 48.7594 35.0523C48.9492 34.1915 48.951 33.2998 48.7648 32.4382C48.6857 32.0836 48.515 31.5523 48.3327 30.9849C48.0601 30.1365 47.7615 29.2073 47.7043 28.6667C47.6738 28.5117 47.6747 28.3522 47.7071 28.1975C47.7396 28.0429 47.8027 27.8964 47.893 27.7667C48.0968 27.5281 48.5436 27.4999 48.6911 27.7797C48.3831 27.0315 47.1946 23.0995 46.9799 22.3187C46.4898 20.5056 47.032 19.7791 47.5742 19.5969C47.8853 19.4932 48.3882 20.4586 48.6657 20.9914C48.7247 21.1047 48.7736 21.1985 48.8082 21.2582C48.3202 20.1218 47.6045 17.5713 47.392 16.5151C47.0298 14.702 47.9363 13.3877 48.4764 14.2943C50.0769 16.9619 53.6359 22.8089 55.2603 25.4634C55.2451 22.258 55.2993 19.5254 55.7288 17.1787C56.0324 15.5608 56.696 15.0186 57.1168 14.8365C57.1612 14.8194 57.2089 14.8124 57.2563 14.816C57.3038 14.8195 57.3499 14.8334 57.3914 14.8569C57.4328 14.8803 57.4685 14.9126 57.4961 14.9514C57.5236 14.9902 57.5422 15.0347 57.5505 15.0815C57.8867 17.0486 59.6087 27.1529 59.9644 30.5167C60.3201 33.8805 60.3266 35.1058 59.8863 37.3462C58.9884 41.9006 55.8198 46.5678 52.7142 50.5757C53.3494 51.6646 53.9649 52.7186 54.5639 53.7442C55.8442 55.9366 57.0491 57.9999 58.2107 60L46.141 60Z" fill="#FFF3A1"/>
<path d="M48.4829 36.9148C50.8533 34.2385 52.7901 31.7098 55.1605 29.0291C55.5292 28.6127 56.0931 28.1616 56.5746 28.4349C56.7485 28.5504 56.8778 28.7218 56.9411 28.9207C57.2252 29.6863 56.9411 30.5386 56.5876 31.2782C55.6008 33.3732 54.1325 35.2253 53.2368 37.3616C52.1286 40.0032 51.8532 43.1349 49.8319 45.1692" stroke="#EEBE15" stroke-linecap="round" stroke-linejoin="round"/>
<path d="M48.9817 28.0288C49.6605 29.5643 50.6321 31.5509 51.3109 33.0864" stroke="#EEBE15" stroke-linecap="round" stroke-linejoin="round"/>
<path d="M49.1616 21.373C50.9292 24.9537 51.981 27.1441 53.3647 30.5448" stroke="#EEBE15" stroke-linecap="round" stroke-linejoin="round"/>
<path d="M55.5142 25.1557C55.4448 26.2083 55.4231 27.2616 55.4491 28.3156" stroke="#EEBE15" stroke-linecap="round" stroke-linejoin="round"/>
<path d="M34 29V38M30 34H38" stroke="#FFCC18" stroke-width="2" stroke-linecap="round"/>
<path fill-rule="evenodd" clip-rule="evenodd" d="M34 29C39.5228 29 44 24.5228 44 19C44 13.4772 39.5228 9 34 9C28.4772 9 24 13.4772 24 19C24 24.5228 28.4772 29 34 29ZM34 23.2857C36.3669 23.2857 38.2857 21.3669 38.2857 19C38.2857 16.6331 36.3669 14.7143 34 14.7143C31.6331 14.7143 29.7143 16.6331 29.7143 19C29.7143 21.3669 31.6331 23.2857 34 23.2857Z" fill="#FFCC18"/>
<path d="M43.5 19C43.5 24.2467 39.2467 28.5 34 28.5V29.5C39.799 29.5 44.5 24.799 44.5 19H43.5ZM34 9.5C39.2467 9.5 43.5 13.7533 43.5 19H44.5C44.5 13.201 39.799 8.5 34 8.5V9.5ZM24.5 19C24.5 13.7533 28.7533 9.5 34 9.5V8.5C28.201 8.5 23.5 13.201 23.5 19H24.5ZM34 28.5C28.7533 28.5 24.5 24.2467 24.5 19H23.5C23.5 24.799 28.201 29.5 34 29.5V28.5ZM37.7857 19C37.7857 21.0908 36.0908 22.7857 34 22.7857V23.7857C36.6431 23.7857 38.7857 21.6431 38.7857 19H37.7857ZM34 15.2143C36.0908 15.2143 37.7857 16.9092 37.7857 19H38.7857C38.7857 16.3569 36.6431 14.2143 34 14.2143V15.2143ZM30.2143 19C30.2143 16.9092 31.9092 15.2143 34 15.2143V14.2143C31.3569 14.2143 29.2143 16.3569 29.2143 19H30.2143ZM34 22.7857C31.9092 22.7857 30.2143 21.0908 30.2143 19H29.2143C29.2143 21.6431 31.3569 23.7857 34 23.7857V22.7857Z" fill="#FFCC18"/>
</svg>