<svg xmlns="http://www.w3.org/2000/svg" width="512" height="512" viewBox="0 0 512 512" version="1.1"><path d="M 136.500 30.930 C 124.447 33.846, 115.318 44.291, 110.201 61.022 C 107.886 68.589, 106.370 78.556, 105.471 92.110 C 104.834 101.720, 104.834 101.720, 108.667 103.255 C 115.202 105.871, 115.623 105.072, 116.282 88.794 C 116.928 72.839, 119.217 62.047, 123.703 53.805 C 127.377 47.054, 131.767 43.882, 139.328 42.514 C 144.268 41.621, 145.761 40.898, 146.917 38.838 C 148.122 36.692, 148.145 35.763, 147.057 33.137 C 145.669 29.787, 143.285 29.289, 136.500 30.930" stroke="none" fill="#303566" fill-rule="evenodd"/><path d="M 360.609 84.250 C 358.330 86.299, 357.291 90.599, 348.975 132.374 C 343.953 157.605, 339.518 179.128, 339.120 180.204 C 338.595 181.625, 334.593 172.552, 324.449 146.934 C 308.922 107.725, 308.372 106.815, 301.269 108.569 C 297.057 109.609, 297.386 109.080, 286.242 132.750 C 280.004 146, 280.004 146, 248.609 146 C 221.625 146, 217.133 146.211, 216.638 147.500 C 215.761 149.786, 217.005 152.052, 219.701 153.077 C 223.532 154.533, 287.334 154.261, 290.597 152.774 C 292.644 151.841, 294.591 148.792, 298.738 140.024 C 304.188 128.500, 304.188 128.500, 320.068 168.500 C 330.273 194.207, 336.711 209.125, 338.085 210.250 C 343.143 214.393, 349.186 211.481, 351.467 203.800 C 352.964 198.758, 358.622 170.897, 365.338 135.500 C 367.216 125.600, 369.018 118.175, 369.341 119 C 369.665 119.825, 373.758 133.951, 378.437 150.391 C 383.117 166.831, 387.702 181.119, 388.628 182.141 C 390.584 184.303, 396.789 184.661, 399.185 182.750 C 400.047 182.063, 405.358 175.320, 410.986 167.768 C 421.219 154.035, 421.219 154.035, 445.259 153.768 C 469.300 153.500, 469.300 153.500, 470.598 149.750 C 471.895 146, 471.895 146, 442.064 146 C 408.431 146, 412.188 144.742, 400.892 159.787 C 396.284 165.925, 396.284 165.925, 388.730 139.713 C 384.575 125.296, 379.467 107.425, 377.380 100 C 373.235 85.259, 371.193 82, 366.101 82 C 364.409 82, 362.026 82.976, 360.609 84.250 M 133.233 123.446 C 127.243 124.896, 123.993 127.350, 124.015 130.405 C 124.053 135.567, 127.975 137.357, 135.093 135.463 C 153.054 130.683, 162.812 139.415, 164.909 162.147 C 165.357 166.995, 166.290 171.645, 166.984 172.481 C 168.440 174.235, 172.264 174.464, 175.066 172.965 C 178.647 171.048, 177.490 154.730, 172.904 142.474 C 169.803 134.184, 161.392 125.788, 153.987 123.589 C 147.697 121.721, 140.558 121.672, 133.233 123.446" stroke="none" fill="#faefe8" fill-rule="evenodd"/><path d="M 143.763 318.565 C 137.860 321.768, 138 320.061, 138 389.050 C 138 452.200, 138 452.200, 141.400 455.600 C 144.800 459, 144.800 459, 158.900 459 C 173 459, 173 459, 173 388 C 173 317, 173 317, 159.750 317.040 C 149.988 317.070, 145.779 317.471, 143.763 318.565 M 445 388 C 445 459, 445 459, 458.096 459 C 472.027 459, 475.057 458.186, 478.082 453.634 C 480.254 450.366, 480.728 329.678, 478.589 324.560 C 475.982 318.318, 472.368 317.008, 457.750 317.004 C 445 317, 445 317, 445 388" stroke="none" fill="#1893f7" fill-rule="evenodd"/><path d="M 173 388 C 173 459, 173 459, 160.750 459.168 C 154.012 459.261, 150.300 459.527, 152.500 459.761 C 154.700 459.995, 163.813 459.871, 172.750 459.486 C 189 458.787, 189 458.787, 189 387.894 C 189 317, 189 317, 181 317 C 173 317, 173 317, 173 388 M 473.810 319.026 C 480.203 322.923, 480.088 321.559, 479.779 389.788 C 479.478 456.460, 479.696 453.859, 474.096 457.335 C 471.580 458.897, 471.756 458.948, 479.800 458.973 C 489.535 459.005, 493.097 457.567, 495.109 452.797 C 497.104 448.068, 497.176 326.685, 495.186 323.196 C 492.610 318.679, 488.237 317.007, 479 317.007 C 470.500 317.007, 470.500 317.007, 473.810 319.026 M 450.750 459.740 C 454.188 459.936, 459.813 459.936, 463.250 459.740 C 466.688 459.545, 463.875 459.385, 457 459.385 C 450.125 459.385, 447.313 459.545, 450.750 459.740" stroke="none" fill="#0b7ddb" fill-rule="evenodd"/><path d="M 193.252 297.764 C 191.526 299.376, 189.850 301.776, 189.526 303.098 C 189.203 304.419, 189.065 343.629, 189.219 390.231 C 189.500 474.962, 189.500 474.962, 192.681 478.142 C 195.616 481.078, 196.484 481.359, 203.947 481.791 C 210.011 482.142, 213.135 481.838, 216.436 480.578 C 224.581 477.467, 224 484.575, 224 388.051 C 224 302.032, 224 302.032, 221.084 298.766 C 218.174 295.507, 218.145 295.499, 207.279 295.167 C 196.421 294.834, 196.381 294.842, 193.252 297.764 M 396.962 297.890 C 393.500 300.780, 393.500 300.780, 393.234 387.387 C 392.967 473.994, 392.967 473.994, 396.384 477.722 C 399.676 481.314, 400.086 481.465, 407.541 481.842 C 416.996 482.319, 422.043 480.926, 425.426 476.905 C 428 473.847, 428 473.847, 428 388.146 C 428 312.104, 427.824 302.194, 426.439 300.217 C 423.630 296.207, 419.773 295, 409.762 295 C 400.931 295, 400.237 295.157, 396.962 297.890 M 444.474 388.500 C 444.474 427.550, 444.598 443.671, 444.750 424.323 C 444.901 404.976, 444.901 373.026, 444.750 353.323 C 444.598 333.621, 444.474 349.450, 444.474 388.500" stroke="none" fill="#293185" fill-rule="evenodd"/><path d="M 147.268 33.899 C 149.060 38.646, 146.421 41.592, 139.618 42.442 C 124.983 44.271, 117.482 59.163, 116.283 88.775 C 115.779 101.198, 115.899 102.976, 117.202 102.476 C 118.364 102.030, 118.834 99.275, 119.299 90.201 C 120.833 60.265, 129.281 44, 143.294 44 C 149.558 44, 153.436 36.514, 149.171 32.655 C 146.536 30.270, 146.024 30.604, 147.268 33.899 M 217.612 295.980 C 218.773 296.449, 220.686 298.057, 221.862 299.552 C 224 302.270, 224 302.270, 223.978 388.385 C 223.953 484.471, 224.504 477.198, 217 480.419 C 213.530 481.909, 213.577 481.922, 222.349 481.961 C 232.516 482.006, 237.256 480.339, 239.544 475.915 C 240.785 473.514, 241 460.475, 241 387.450 C 241 301.800, 241 301.800, 237.600 298.400 C 234.206 295.006, 234.184 295, 224.850 295.063 C 218.649 295.105, 216.211 295.414, 217.612 295.980 M 422.686 296.950 C 424.439 298.019, 426.351 299.787, 426.936 300.881 C 427.664 302.241, 428 329.841, 428 388.299 C 428 473.730, 428 473.730, 425.835 476.483 C 424.644 477.997, 422.281 479.840, 420.585 480.579 C 417.696 481.836, 418.062 481.924, 426.349 481.961 C 435.920 482.003, 440.532 480.580, 442.849 476.870 C 444.611 474.049, 444.836 303.430, 443.082 300.153 C 440.859 295.999, 438.034 295, 428.527 295.004 C 419.500 295.007, 419.500 295.007, 422.686 296.950" stroke="none" fill="#171e6b" fill-rule="evenodd"/><path d="M 453.500 137.657 C 463.003 138.388, 474.779 138.440, 474.349 137.750 C 474.092 137.338, 468.396 137.079, 461.691 137.175 C 454.986 137.271, 451.300 137.488, 453.500 137.657 M 377 387.993 C 377 420.986, 377 420.986, 308.750 421.250 C 240.500 421.514, 240.500 421.514, 316.750 421.757 C 393 422, 393 422, 393 388.500 C 393 355, 393 355, 385 355 C 377 355, 377 355, 377 387.993" stroke="none" fill="#a5bac7" fill-rule="evenodd"/><path d="M 147.268 33.899 C 149.060 38.646, 146.421 41.592, 139.618 42.442 C 124.983 44.271, 117.482 59.163, 116.283 88.775 C 115.779 101.198, 115.899 102.976, 117.202 102.476 C 118.364 102.030, 118.834 99.275, 119.299 90.201 C 120.833 60.265, 129.281 44, 143.294 44 C 149.558 44, 153.436 36.514, 149.171 32.655 C 146.536 30.270, 146.024 30.604, 147.268 33.899 M 217.612 295.980 C 218.773 296.449, 220.686 298.057, 221.862 299.552 C 224 302.270, 224 302.270, 223.978 388.385 C 223.953 484.471, 224.504 477.198, 217 480.419 C 213.530 481.909, 213.577 481.922, 222.349 481.961 C 232.516 482.006, 237.256 480.339, 239.544 475.915 C 240.785 473.514, 241 460.475, 241 387.450 C 241 301.800, 241 301.800, 237.600 298.400 C 234.206 295.006, 234.184 295, 224.850 295.063 C 218.649 295.105, 216.211 295.414, 217.612 295.980 M 422.686 296.950 C 424.439 298.019, 426.351 299.787, 426.936 300.881 C 427.664 302.241, 428 329.841, 428 388.299 C 428 473.730, 428 473.730, 425.835 476.483 C 424.644 477.997, 422.281 479.840, 420.585 480.579 C 417.696 481.836, 418.062 481.924, 426.349 481.961 C 435.920 482.003, 440.532 480.580, 442.849 476.870 C 444.611 474.049, 444.836 303.430, 443.082 300.153 C 440.859 295.999, 438.034 295, 428.527 295.004 C 419.500 295.007, 419.500 295.007, 422.686 296.950" stroke="none" fill="#171e6b" fill-rule="evenodd"/><path d="M 193.252 297.764 C 191.526 299.376, 189.850 301.776, 189.526 303.098 C 189.203 304.419, 189.065 343.629, 189.219 390.231 C 189.500 474.962, 189.500 474.962, 192.681 478.142 C 195.616 481.078, 196.484 481.359, 203.947 481.791 C 210.011 482.142, 213.135 481.838, 216.436 480.578 C 224.581 477.467, 224 484.575, 224 388.051 C 224 302.032, 224 302.032, 221.084 298.766 C 218.174 295.507, 218.145 295.499, 207.279 295.167 C 196.421 294.834, 196.381 294.842, 193.252 297.764 M 396.962 297.890 C 393.500 300.780, 393.500 300.780, 393.234 387.387 C 392.967 473.994, 392.967 473.994, 396.384 477.722 C 399.676 481.314, 400.086 481.465, 407.541 481.842 C 416.996 482.319, 422.043 480.926, 425.426 476.905 C 428 473.847, 428 473.847, 428 388.146 C 428 312.104, 427.824 302.194, 426.439 300.217 C 423.630 296.207, 419.773 295, 409.762 295 C 400.931 295, 400.237 295.157, 396.962 297.890 M 444.474 388.500 C 444.474 427.550, 444.598 443.671, 444.750 424.323 C 444.901 404.976, 444.901 373.026, 444.750 353.323 C 444.598 333.621, 444.474 349.450, 444.474 388.500" stroke="none" fill="#293185" fill-rule="evenodd"/><path d="M 143.763 318.565 C 137.860 321.768, 138 320.061, 138 389.050 C 138 452.200, 138 452.200, 141.400 455.600 C 144.800 459, 144.800 459, 158.900 459 C 173 459, 173 459, 173 388 C 173 317, 173 317, 159.750 317.040 C 149.988 317.070, 145.779 317.471, 143.763 318.565 M 445 388 C 445 459, 445 459, 458.096 459 C 472.027 459, 475.057 458.186, 478.082 453.634 C 480.254 450.366, 480.728 329.678, 478.589 324.560 C 475.982 318.318, 472.368 317.008, 457.750 317.004 C 445 317, 445 317, 445 388" stroke="none" fill="#1893f7" fill-rule="evenodd"/><path d="M 173 388 C 173 459, 173 459, 160.750 459.168 C 154.012 459.261, 150.300 459.527, 152.500 459.761 C 154.700 459.995, 163.813 459.871, 172.750 459.486 C 189 458.787, 189 458.787, 189 387.894 C 189 317, 189 317, 181 317 C 173 317, 173 317, 173 388 M 473.810 319.026 C 480.203 322.923, 480.088 321.559, 479.779 389.788 C 479.478 456.460, 479.696 453.859, 474.096 457.335 C 471.580 458.897, 471.756 458.948, 479.800 458.973 C 489.535 459.005, 493.097 457.567, 495.109 452.797 C 497.104 448.068, 497.176 326.685, 495.186 323.196 C 492.610 318.679, 488.237 317.007, 479 317.007 C 470.500 317.007, 470.500 317.007, 473.810 319.026 M 450.750 459.740 C 454.188 459.936, 459.813 459.936, 463.250 459.740 C 466.688 459.545, 463.875 459.385, 457 459.385 C 450.125 459.385, 447.313 459.545, 450.750 459.740" stroke="none" fill="#0b7ddb" fill-rule="evenodd"/><path d="M 362.337 75.477 C 361.177 76.289, 359.931 78.201, 359.567 79.727 C 359.203 81.252, 358.647 83.363, 358.332 84.417 C 357.798 86.204, 357.946 86.188, 360.514 84.167 C 362.030 82.975, 364.579 82, 366.180 82 C 371.184 82, 373.255 85.329, 377.380 100 C 379.467 107.425, 384.575 125.296, 388.730 139.713 C 396.284 165.925, 396.284 165.925, 400.892 159.787 C 412.188 144.742, 408.434 146, 442.039 146 C 471.845 146, 471.845 146, 473.022 142.433 C 473.670 140.471, 474.035 138.702, 473.835 138.502 C 473.635 138.301, 460.877 137.832, 445.485 137.459 C 426.427 136.996, 416.636 137.121, 414.792 137.849 C 413.232 138.465, 409.212 142.753, 405.312 147.959 C 401.587 152.932, 398.285 157, 397.973 157 C 397.661 157, 392.518 139.787, 386.544 118.750 C 380.571 97.713, 375.231 79.600, 374.678 78.500 C 372.422 74.009, 366.502 72.559, 362.337 75.477 M 299.405 102.098 C 298.357 103.252, 294.055 111.464, 289.844 120.348 C 282.189 136.500, 282.189 136.500, 250.621 137 C 219.635 137.491, 219.011 137.541, 216.826 139.728 C 214.285 142.271, 213.786 148.244, 215.947 150.250 C 216.799 151.042, 217.055 151.075, 216.643 150.340 C 216.286 149.702, 216.268 148.465, 216.604 147.590 C 217.144 146.183, 220.833 146, 248.609 146 C 280.004 146, 280.004 146, 286.242 132.750 C 297.386 109.080, 297.057 109.609, 301.269 108.569 C 308.373 106.814, 308.919 107.718, 324.481 147.017 C 338.463 182.324, 338.463 182.324, 339.725 177.967 C 340.418 175.570, 340.618 173.360, 340.169 173.055 C 339.719 172.750, 333.174 156.975, 325.624 138 C 317.453 117.468, 311.062 102.791, 309.837 101.750 C 306.986 99.326, 301.764 99.500, 299.405 102.098 M 165 130.500 C 166.866 132.425, 168.617 134, 168.892 134 C 169.167 134, 167.866 132.425, 166 130.500 C 164.134 128.575, 162.383 127, 162.108 127 C 161.833 127, 163.134 128.575, 165 130.500 M 141.264 134.718 C 142.784 134.947, 145.034 134.941, 146.264 134.704 C 147.494 134.467, 146.250 134.279, 143.500 134.286 C 140.750 134.294, 139.744 134.488, 141.264 134.718 M 177.310 165.500 C 177.315 168.800, 177.502 170.029, 177.725 168.232 C 177.947 166.435, 177.943 163.735, 177.715 162.232 C 177.486 160.729, 177.304 162.200, 177.310 165.500 M 241 388 C 241 421, 241 421, 309 421 C 377 421, 377 421, 377 388 C 377 355, 377 355, 309 355 C 241 355, 241 355, 241 388" stroke="none" fill="#e3d5cc" fill-rule="evenodd"/><path d="M 360.609 84.250 C 358.330 86.299, 357.291 90.599, 348.975 132.374 C 343.953 157.605, 339.518 179.128, 339.120 180.204 C 338.595 181.625, 334.593 172.552, 324.449 146.934 C 308.922 107.725, 308.372 106.815, 301.269 108.569 C 297.057 109.609, 297.386 109.080, 286.242 132.750 C 280.004 146, 280.004 146, 248.609 146 C 221.625 146, 217.133 146.211, 216.638 147.500 C 215.761 149.786, 217.005 152.052, 219.701 153.077 C 223.532 154.533, 287.334 154.261, 290.597 152.774 C 292.644 151.841, 294.591 148.792, 298.738 140.024 C 304.188 128.500, 304.188 128.500, 320.068 168.500 C 330.273 194.207, 336.711 209.125, 338.085 210.250 C 343.143 214.393, 349.186 211.481, 351.467 203.800 C 352.964 198.758, 358.622 170.897, 365.338 135.500 C 367.216 125.600, 369.018 118.175, 369.341 119 C 369.665 119.825, 373.758 133.951, 378.437 150.391 C 383.117 166.831, 387.702 181.119, 388.628 182.141 C 390.584 184.303, 396.789 184.661, 399.185 182.750 C 400.047 182.063, 405.358 175.320, 410.986 167.768 C 421.219 154.035, 421.219 154.035, 445.259 153.768 C 469.300 153.500, 469.300 153.500, 470.598 149.750 C 471.895 146, 471.895 146, 442.064 146 C 408.431 146, 412.188 144.742, 400.892 159.787 C 396.284 165.925, 396.284 165.925, 388.730 139.713 C 384.575 125.296, 379.467 107.425, 377.380 100 C 373.235 85.259, 371.193 82, 366.101 82 C 364.409 82, 362.026 82.976, 360.609 84.250 M 133.233 123.446 C 127.243 124.896, 123.993 127.350, 124.015 130.405 C 124.053 135.567, 127.975 137.357, 135.093 135.463 C 153.054 130.683, 162.812 139.415, 164.909 162.147 C 165.357 166.995, 166.290 171.645, 166.984 172.481 C 168.440 174.235, 172.264 174.464, 175.066 172.965 C 178.647 171.048, 177.490 154.730, 172.904 142.474 C 169.803 134.184, 161.392 125.788, 153.987 123.589 C 147.697 121.721, 140.558 121.672, 133.233 123.446" stroke="none" fill="#faefe8" fill-rule="evenodd"/><path d="M 362.337 75.477 C 361.177 76.289, 359.931 78.201, 359.567 79.727 C 359.203 81.252, 358.647 83.363, 358.332 84.417 C 357.798 86.204, 357.946 86.188, 360.514 84.167 C 362.030 82.975, 364.579 82, 366.180 82 C 371.184 82, 373.255 85.329, 377.380 100 C 379.467 107.425, 384.575 125.296, 388.730 139.713 C 396.284 165.925, 396.284 165.925, 400.892 159.787 C 412.188 144.742, 408.434 146, 442.039 146 C 471.845 146, 471.845 146, 473.022 142.433 C 473.670 140.471, 474.035 138.702, 473.835 138.502 C 473.635 138.301, 460.877 137.832, 445.485 137.459 C 426.427 136.996, 416.636 137.121, 414.792 137.849 C 413.232 138.465, 409.212 142.753, 405.312 147.959 C 401.587 152.932, 398.285 157, 397.973 157 C 397.661 157, 392.518 139.787, 386.544 118.750 C 380.571 97.713, 375.231 79.600, 374.678 78.500 C 372.422 74.009, 366.502 72.559, 362.337 75.477 M 299.405 102.098 C 298.357 103.252, 294.055 111.464, 289.844 120.348 C 282.189 136.500, 282.189 136.500, 250.621 137 C 219.635 137.491, 219.011 137.541, 216.826 139.728 C 214.285 142.271, 213.786 148.244, 215.947 150.250 C 216.799 151.042, 217.055 151.075, 216.643 150.340 C 216.286 149.702, 216.268 148.465, 216.604 147.590 C 217.144 146.183, 220.833 146, 248.609 146 C 280.004 146, 280.004 146, 286.242 132.750 C 297.386 109.080, 297.057 109.609, 301.269 108.569 C 308.373 106.814, 308.919 107.718, 324.481 147.017 C 338.463 182.324, 338.463 182.324, 339.725 177.967 C 340.418 175.570, 340.618 173.360, 340.169 173.055 C 339.719 172.750, 333.174 156.975, 325.624 138 C 317.453 117.468, 311.062 102.791, 309.837 101.750 C 306.986 99.326, 301.764 99.500, 299.405 102.098 M 165 130.500 C 166.866 132.425, 168.617 134, 168.892 134 C 169.167 134, 167.866 132.425, 166 130.500 C 164.134 128.575, 162.383 127, 162.108 127 C 161.833 127, 163.134 128.575, 165 130.500 M 141.264 134.718 C 142.784 134.947, 145.034 134.941, 146.264 134.704 C 147.494 134.467, 146.250 134.279, 143.500 134.286 C 140.750 134.294, 139.744 134.488, 141.264 134.718 M 177.310 165.500 C 177.315 168.800, 177.502 170.029, 177.725 168.232 C 177.947 166.435, 177.943 163.735, 177.715 162.232 C 177.486 160.729, 177.304 162.200, 177.310 165.500 M 241 388 C 241 421, 241 421, 309 421 C 377 421, 377 421, 377 388 C 377 355, 377 355, 309 355 C 241 355, 241 355, 241 388" stroke="none" fill="#e3d5cc" fill-rule="evenodd"/><path d="" stroke="none" fill="#1e54a9" fill-rule="evenodd"/><path d="M 230 35.494 C 201.649 41.842, 179.205 60.761, 168.306 87.500 C 165.277 94.930, 164.847 95.486, 162.272 95.307 C 143.915 94.032, 131.947 95.824, 119 101.787 C 112.746 104.668, 112.368 104.722, 109 103.231 C 67.791 84.980, 35.160 98.749, 21.668 140.083 C 13.269 165.812, 13.825 202.310, 23.038 230.030 C 38.281 275.893, 69.550 293.567, 105.500 276.641 C 112.500 273.345, 112.500 273.345, 119.500 276.639 C 141.328 286.910, 161.006 284.687, 177.213 270.118 C 190.221 258.424, 201.195 236.041, 205.593 212.229 C 206.480 207.428, 207.405 202.847, 207.648 202.049 C 207.930 201.127, 228.381 220.885, 263.799 256.299 C 319.506 311.999, 319.506 311.999, 389.079 242.250 C 427.344 203.887, 459.768 170.925, 461.131 169 C 464.656 164.024, 469 156.335, 469 155.072 C 469 154.338, 461.506 154.014, 445.250 154.043 C 421.500 154.086, 421.500 154.086, 410.708 168.584 C 404.772 176.557, 398.843 183.570, 397.532 184.167 C 394.687 185.464, 390.607 184.610, 388.225 182.218 C 387.230 181.221, 382.925 167.894, 378.058 150.744 C 373.414 134.385, 369.336 121, 368.995 121 C 368.654 121, 366.242 132.587, 363.635 146.750 C 357.508 180.028, 352.215 204.684, 350.475 208.049 C 349.715 209.517, 347.691 211.300, 345.975 212.010 C 343.336 213.103, 342.349 213.060, 339.557 211.729 C 336.412 210.229, 335.517 208.302, 320.436 170.578 C 311.735 148.810, 304.310 131, 303.936 131 C 303.562 131, 301.296 135.323, 298.899 140.608 C 296.503 145.892, 293.459 151.067, 292.136 152.108 C 289.879 153.883, 287.548 154, 254.454 154 C 219.178 154, 219.178 154, 216.589 150.923 C 213.196 146.891, 213.298 143.548, 216.923 139.923 C 219.846 137, 219.846 137, 250.776 137 C 281.705 137, 281.705 137, 289.603 120.325 C 293.946 111.153, 298.372 102.828, 299.439 101.825 C 301.780 99.621, 306.774 99.453, 309.668 101.480 C 311.093 102.478, 316.240 114.122, 325.472 137.230 C 333.002 156.078, 339.472 171.824, 339.851 172.220 C 340.229 172.615, 344.777 151.698, 349.957 125.737 C 358.032 85.266, 359.698 78.211, 361.642 76.267 C 364.530 73.379, 370.211 73.211, 372.933 75.933 C 375.104 78.104, 375.066 77.983, 388.060 123.745 C 393.252 142.029, 397.725 156.982, 398 156.973 C 398.275 156.964, 400.300 154.438, 402.500 151.360 C 404.700 148.281, 408.344 143.778, 410.597 141.352 C 414.694 136.942, 414.694 136.942, 444.796 137.221 C 479.675 137.544, 475.671 139.207, 476.632 124 C 478.794 89.808, 459.803 57.556, 428.670 42.546 C 416.430 36.644, 409.774 34.981, 395.646 34.294 C 369.237 33.009, 349.390 40.762, 329.443 60.155 C 319.387 69.933, 319.387 69.933, 311.443 61.883 C 298.448 48.714, 288.814 42.599, 273 37.483 C 265.748 35.137, 262.444 34.683, 250.500 34.386 C 240.742 34.144, 234.530 34.479, 230 35.494 M 141 121.723 C 133.774 122.584, 126.916 124.442, 125.657 125.878 C 122.887 129.040, 122.797 131.652, 125.354 134.625 C 127.771 137.435, 127.802 137.441, 133.700 136.223 C 141.088 134.697, 148.457 134.654, 151.316 136.120 C 159.055 140.088, 163.262 148.776, 164.601 163.556 C 165.585 174.412, 169.379 177.636, 175.502 172.820 C 178.250 170.658, 178.269 170.565, 177.659 161.981 C 176.298 142.800, 168.753 129.214, 156.551 123.971 C 152.412 122.192, 145.477 121.190, 141 121.723" stroke="none" fill="#f12b2f" fill-rule="evenodd"/></svg>